<svg width="1920" height="1080" viewBox="0 0 1920 1080" fill="none" xmlns="http://www.w3.org/2000/svg">
<g clip-path="url(#clip0_0_3)">
<rect width="1920" height="1080" fill="white"/>
<circle cx="102.5" cy="62.5" r="259.5" fill="url(#paint0_linear_0_3)"/>
<path d="M1651.28 781.725L1508.69 871.659L1508.56 692.003L1651.28 781.725Z" fill="#EEEEEE"/>
<path d="M1608.28 779.725L1465.69 869.659L1465.56 690.003L1608.28 779.725Z" fill="url(#paint1_linear_0_3)"/>
<rect x="1751.86" y="1105.96" width="123.857" height="677.093" rx="61.9284" transform="rotate(123.525 1751.86 1105.96)" fill="url(#paint2_linear_0_3)"/>
<rect x="2010.86" y="779.956" width="123.857" height="677.093" rx="61.9284" transform="rotate(123.525 2010.86 779.956)" fill="url(#paint3_linear_0_3)"/>
<rect x="1685.08" y="-13.6685" width="250.924" height="250.924" fill="#F4F4F4"/>
<rect x="1651" y="-40" width="250.924" height="250.924" fill="url(#paint4_linear_0_3)"/>
<rect x="107.402" y="826.413" width="238.598" height="213.587" fill="#F4F4F4"/>
<rect x="75" y="804" width="238.598" height="213.587" fill="url(#paint5_linear_0_3)"/>
</g>
<defs>
<linearGradient id="paint0_linear_0_3" x1="102.5" y1="-197" x2="102.5" y2="322" gradientUnits="userSpaceOnUse">
<stop offset="0.296875" stop-color="#335DF4"/>
<stop offset="0.9999" stop-color="#6CFBD0" stop-opacity="0.385417"/>
</linearGradient>
<linearGradient id="paint1_linear_0_3" x1="1608.28" y1="779.725" x2="1418.08" y2="779.867" gradientUnits="userSpaceOnUse">
<stop offset="0.213542" stop-color="#159DD7"/>
<stop offset="0.859375" stop-color="#90E582" stop-opacity="0.515957"/>
<stop offset="0.979167" stop-color="#F5F5F5" stop-opacity="0"/>
</linearGradient>
<linearGradient id="paint2_linear_0_3" x1="1813.79" y1="1105.96" x2="1813.79" y2="1783.05" gradientUnits="userSpaceOnUse">
<stop stop-color="#51ABFF"/>
<stop offset="0.9999" stop-color="#79FFCF" stop-opacity="0.458333"/>
<stop offset="1" stop-color="#D9D9D9" stop-opacity="0"/>
</linearGradient>
<linearGradient id="paint3_linear_0_3" x1="2072.79" y1="779.956" x2="2072.79" y2="1457.05" gradientUnits="userSpaceOnUse">
<stop stop-color="#51ABFF"/>
<stop offset="0.9999" stop-color="#79FFCF" stop-opacity="0.458333"/>
<stop offset="1" stop-color="#D9D9D9" stop-opacity="0"/>
</linearGradient>
<linearGradient id="paint4_linear_0_3" x1="1776.46" y1="-40" x2="1776.46" y2="210.924" gradientUnits="userSpaceOnUse">
<stop stop-color="#2CA9EF"/>
<stop offset="0.9999" stop-color="#8FFFE4" stop-opacity="0.546875"/>
<stop offset="1" stop-color="#22DB34" stop-opacity="0"/>
</linearGradient>
<linearGradient id="paint5_linear_0_3" x1="194.299" y1="804" x2="194.299" y2="1017.59" gradientUnits="userSpaceOnUse">
<stop stop-color="#2CA9EF"/>
<stop offset="0.9999" stop-color="#8FFFE4" stop-opacity="0.546875"/>
<stop offset="1" stop-color="#22DB34" stop-opacity="0"/>
</linearGradient>
<clipPath id="clip0_0_3">
<rect width="1920" height="1080" fill="white"/>
</clipPath>
</defs>
</svg>
