<svg width="1440" height="1024" viewBox="0 0 1440 1024" fill="none" xmlns="http://www.w3.org/2000/svg">
<g clip-path="url(#clip0_2_2)">
<rect width="1440" height="1024" fill="white"/>
<circle cx="0.189771" cy="512.339" r="193.926" transform="rotate(-89.9219 0.189771 512.339)" fill="url(#paint0_linear_2_2)"/>
<rect x="1125.58" y="372.357" width="123.857" height="677.093" rx="61.9284" transform="rotate(-135 1125.58 372.357)" fill="url(#paint1_linear_2_2)"/>
<rect x="973.58" y="409.357" width="123.857" height="677.093" rx="61.9284" transform="rotate(-135 973.58 409.357)" fill="url(#paint2_linear_2_2)"/>
<rect x="990.58" y="259.357" width="123.857" height="677.093" rx="61.9284" transform="rotate(-135 990.58 259.357)" fill="url(#paint3_linear_2_2)"/>
<circle cx="113.935" cy="258.935" r="59.9036" transform="rotate(-115.659 113.935 258.935)" fill="url(#paint4_linear_2_2)"/>
<rect x="1168.4" y="781.413" width="238.598" height="213.587" fill="#F4F4F4"/>
<rect x="1136" y="759" width="238.598" height="213.587" fill="url(#paint5_linear_2_2)"/>
<path d="M836.279 512.725L693.695 602.659L693.561 423.003L836.279 512.725Z" fill="#EEEEEE"/>
<path d="M793.279 510.725L650.695 600.659L650.561 421.003L793.279 510.725Z" fill="url(#paint6_linear_2_2)"/>
</g>
<defs>
<linearGradient id="paint0_linear_2_2" x1="0.189774" y1="318.413" x2="0.189774" y2="706.264" gradientUnits="userSpaceOnUse">
<stop offset="0.296875" stop-color="#335DF4"/>
<stop offset="0.9999" stop-color="#6CFBD0" stop-opacity="0.385417"/>
</linearGradient>
<linearGradient id="paint1_linear_2_2" x1="1187.51" y1="372.357" x2="1187.51" y2="1049.45" gradientUnits="userSpaceOnUse">
<stop stop-color="#51ABFF"/>
<stop offset="0.9999" stop-color="#79FFCF" stop-opacity="0.458333"/>
<stop offset="1" stop-color="#D9D9D9" stop-opacity="0"/>
</linearGradient>
<linearGradient id="paint2_linear_2_2" x1="1035.51" y1="409.357" x2="1035.51" y2="1086.45" gradientUnits="userSpaceOnUse">
<stop stop-color="#51ABFF"/>
<stop offset="0.9999" stop-color="#79FFCF" stop-opacity="0.458333"/>
<stop offset="1" stop-color="#D9D9D9" stop-opacity="0"/>
</linearGradient>
<linearGradient id="paint3_linear_2_2" x1="1052.51" y1="259.357" x2="1052.51" y2="936.451" gradientUnits="userSpaceOnUse">
<stop stop-color="#51ABFF"/>
<stop offset="0.9999" stop-color="#79FFCF" stop-opacity="0.458333"/>
<stop offset="1" stop-color="#D9D9D9" stop-opacity="0"/>
</linearGradient>
<linearGradient id="paint4_linear_2_2" x1="113.935" y1="199.032" x2="113.935" y2="318.839" gradientUnits="userSpaceOnUse">
<stop stop-color="#557AFF"/>
<stop offset="0.9999" stop-color="#6CFBD0" stop-opacity="0.385417"/>
</linearGradient>
<linearGradient id="paint5_linear_2_2" x1="1255.3" y1="759" x2="1255.3" y2="972.587" gradientUnits="userSpaceOnUse">
<stop stop-color="#2CA9EF"/>
<stop offset="0.9999" stop-color="#8FFFE4" stop-opacity="0.546875"/>
<stop offset="1" stop-color="#22DB34" stop-opacity="0"/>
</linearGradient>
<linearGradient id="paint6_linear_2_2" x1="793.279" y1="510.725" x2="603.077" y2="510.867" gradientUnits="userSpaceOnUse">
<stop offset="0.213542" stop-color="#159DD7"/>
<stop offset="0.859375" stop-color="#90E582" stop-opacity="0.515957"/>
<stop offset="0.979167" stop-color="#F5F5F5" stop-opacity="0"/>
</linearGradient>
<clipPath id="clip0_2_2">
<rect width="1440" height="1024" fill="white"/>
</clipPath>
</defs>
</svg>
